<svg width="129" height="128" viewBox="0 0 129 128" fill="none" xmlns="http://www.w3.org/2000/svg">
<rect width="129" height="128" rx="64" fill="#0060C2"/>
<path d="M50.238 56.1283C50.2722 56.1528 50.3261 56.2063 50.3147 56.2469C49.7066 58.4143 48.9528 62.1404 48.3483 64.2688C47.8894 65.9064 47.4304 67.544 46.8949 69.1816C46.7419 69.6987 46.8184 69.7849 47.2774 69.7849C48.2718 69.7849 49.2663 69.7849 50.2608 69.7849C50.6433 69.7849 50.8728 69.6125 51.1022 69.2678C53.0147 65.6478 55.0801 60.3041 57.0691 56.6842C57.4073 56.049 58.2737 56.1671 58.9933 56.1671C60.6775 56.1671 62.3279 56.1671 64.0303 56.1671C65.1778 56.1671 66.0958 55.4776 66.4782 54.3571C66.8607 53.2367 66.6312 52.03 65.7898 51.1681C65.3308 50.651 64.7953 50.4786 64.1068 50.4786C62.1179 50.4786 60.129 50.4786 58.14 50.4786C57.6045 50.4786 57.2985 50.3063 56.9926 49.7029C54.6976 45.3935 52.4027 41.1703 50.1078 36.947C49.8783 36.6023 49.7253 36.4299 49.2663 36.4299C48.4248 36.5161 47.5834 36.4299 46.7419 36.4299C46.2829 36.4299 46.2064 36.5161 46.3594 37.0332C47.5834 41.2564 48.8838 45.5659 50.1078 49.7891C50.255 50.1209 49.9731 50.4786 49.6101 50.4786C48.1901 50.4786 46.8261 50.4786 45.5179 50.4786C43.6055 50.4786 41.6166 50.5648 39.7041 50.3063C34.3493 49.7029 29.7594 45.1349 28.765 39.2741C28.3664 37.0286 28.3716 34.7831 28.9311 32.5941C29.1014 31.9276 29.2245 31 29.9124 31C38.4037 31 46.8184 31 55.3096 31C59.4405 31 63.5713 31.5171 67.4727 33.3271C72.2921 35.4818 76.0404 38.9294 78.4119 44.273C79.7888 47.3758 80.2478 50.651 80.1713 54.0986C80.0948 56.598 79.7888 59.0975 78.9473 61.5108C77.1114 66.8545 73.822 70.5606 69.0027 72.4567C65.7898 73.7496 62.5004 74.2667 59.058 74.5253C54.4681 74.7838 49.9548 74.6114 45.3649 74.6114C44.8295 74.6114 44.6765 74.7838 44.6765 75.3871C44.6765 81.5065 44.6765 87.5397 44.753 93.6591C44.753 94.2625 44.6 94.3486 44.141 94.3486C38.9391 94.521 33.8138 94.3486 28.612 94.4348C28.153 94.4348 28 94.3486 28 93.7453C28 87.7121 28 81.6789 28 75.6457C28 72.6291 28 69.5263 28 66.5097C28 65.6991 28.2808 64.9139 28.6037 64.1704C30.5626 59.6601 33.8043 57.0234 38.3288 56.1941C38.429 56.1757 38.5313 56.1671 38.6332 56.1671C42.4266 56.1671 46.2201 56.1671 50.0882 56.083C50.1337 56.082 50.201 56.1018 50.238 56.1283Z" fill="white"/>
<path d="M48.5778 93.2282C48.4248 93.2282 48.3483 93.2282 48.2718 93.142C48.1953 93.0558 48.1953 92.9696 48.1953 92.7973V79.3518C48.1953 79.1795 48.1953 79.0933 48.2718 79.0071C48.3483 78.9209 48.4248 78.9209 48.5778 78.9209H55.6156C55.7686 78.9209 55.8451 78.9209 55.9216 79.0071C55.9981 79.0933 55.9981 79.1795 55.9981 79.3518V79.6966C55.9981 79.869 55.9981 79.9552 55.9216 80.0414C55.8451 80.1275 55.7686 80.1275 55.6156 80.1275H52.1008C50.5776 80.1275 49.3428 81.3624 49.3428 82.8856C49.3428 84.4088 50.5776 85.6436 52.1008 85.6436H55.2331C55.3861 85.6436 55.4626 85.6436 55.5391 85.7298C55.6156 85.816 55.6156 85.9022 55.6156 86.0746V86.4193C55.6156 86.5917 55.6156 86.6779 55.5391 86.7641C55.4626 86.8503 55.3861 86.8503 55.2331 86.8503C51.98 86.8503 49.3428 89.5441 49.3428 92.7973C49.3428 92.9696 49.3428 93.0558 49.2663 93.142C49.1898 93.2282 49.1133 93.2282 48.9603 93.2282H48.5778Z" fill="white"/>
<path d="M58.7516 93.1849C58.7516 93.2087 58.7323 93.228 58.7085 93.2279C58.5835 93.2271 58.5146 93.2195 58.4456 93.1418C58.3691 93.0556 58.3691 92.9694 58.3691 92.797V79.0931C58.3691 78.9207 58.3691 78.8345 58.4456 78.7483C58.5221 78.6621 58.5986 78.6621 58.7516 78.6621H59.0576C59.2106 78.6621 59.2871 78.6621 59.3636 78.7483C59.4401 78.8345 59.4401 78.9207 59.4401 79.0931V92.7109C59.4401 92.8832 59.4401 92.9694 59.3636 93.0556C59.2871 93.1418 59.2106 93.1418 59.0576 93.1418H58.7947C58.7709 93.1418 58.7516 93.1611 58.7516 93.1849Z" fill="white"/>
<path d="M62.5768 80.3859C62.4238 80.3859 62.3473 80.3859 62.2708 80.2997C62.1943 80.2135 62.1943 80.1273 62.1943 79.9549V79.1792C62.1943 79.0069 62.1943 78.9207 62.2708 78.8345C62.3473 78.7483 62.4238 78.6621 62.5768 78.6621H63.2653C63.4183 78.6621 63.4948 78.7483 63.5713 78.8345C63.6478 78.9207 63.7243 79.0069 63.7243 79.1792V79.9549C63.7243 80.1273 63.6478 80.2135 63.5713 80.2997C63.4948 80.3859 63.4183 80.3859 63.2653 80.3859H62.5768ZM62.8063 93.1849C62.8063 93.2087 62.787 93.228 62.7632 93.2279C62.6573 93.2273 62.5917 93.2217 62.5322 93.1728C62.5094 93.1541 62.494 93.1281 62.4829 93.1009C62.4238 92.9552 62.4238 92.8761 62.4238 92.797V82.9715C62.4238 82.7992 62.4238 82.713 62.5003 82.6268C62.5768 82.5406 62.6533 82.5406 62.8063 82.5406H63.1123C63.2653 82.5406 63.3418 82.5406 63.4183 82.6268C63.4948 82.713 63.4948 82.7992 63.4948 82.9715V92.7109C63.4948 92.8832 63.4948 92.9694 63.4183 93.0556C63.3418 93.1418 63.2653 93.1418 63.1123 93.1418H62.8494C62.8256 93.1418 62.8063 93.1611 62.8063 93.1849Z" fill="white"/>
<path d="M69.9969 93.4008C68.8495 93.4008 67.855 92.9699 67.1665 92.108C66.478 91.2461 66.0955 90.1256 66.019 88.6604C66.019 88.4881 66.019 88.1433 66.019 87.7986C66.019 87.4538 66.019 87.1952 66.019 86.9367C66.0955 85.9886 66.2485 85.2129 66.631 84.4372C66.937 83.7477 67.396 83.1444 68.008 82.7996C68.62 82.3687 69.2319 82.1963 70.0734 82.1963C70.9149 82.1963 71.6799 82.3687 72.2153 82.7996C72.8273 83.2306 73.2863 83.8339 73.5923 84.6096C73.8983 85.3853 74.0513 86.3333 74.0513 87.4538V87.7986C74.0513 87.9709 73.9748 88.0571 73.8983 88.1433C73.8218 88.2295 73.7453 88.2295 73.5923 88.2295H67.2624C67.1672 88.2295 67.09 88.4019 67.09 88.4019C67.09 89.0052 67.243 89.6085 67.4725 90.1256C67.702 90.6428 68.008 91.1599 68.467 91.5047C68.9259 91.8494 69.3849 92.0218 69.9969 92.0218C70.5324 92.0218 70.9149 91.9356 71.2974 91.7632C71.4292 91.7038 71.5429 91.6444 71.6446 91.5814C72.0134 91.3533 72.3455 91.0391 72.5213 90.6428C72.5351 90.6117 72.5514 90.5834 72.5689 90.5574C72.6676 90.4102 72.8796 90.2118 73.0568 90.2118H73.3628C73.4393 90.2118 73.5923 90.2118 73.6688 90.298C73.7453 90.3842 73.7453 90.4704 73.7453 90.5566C73.7453 90.5898 73.7424 90.6263 73.7362 90.6653C73.6668 91.0993 73.3198 91.4342 73.0132 91.7492C72.97 91.7936 72.9254 91.8393 72.88 91.8865C72.7405 92.0316 72.6177 92.1609 72.4565 92.2813C71.9077 92.6912 71.3164 93.1692 70.6513 93.3333C70.4367 93.3863 70.2168 93.4008 69.9969 93.4008ZM67.4725 85.3853C66.9217 86.3162 67.9669 87.2814 69.0485 87.2814H72.8176C72.8652 87.2814 72.9038 87.2428 72.9038 87.1952C72.9038 86.5057 72.7508 85.9024 72.5213 85.3853C72.2918 84.8681 71.9858 84.4372 71.5269 84.0924C71.0679 83.7477 70.5324 83.5753 69.9969 83.5753C69.3849 83.5753 68.8495 83.7477 68.467 84.0924C68.008 84.4372 67.702 84.8681 67.4725 85.3853Z" fill="white"/>
<path d="M79.9416 97.71C79.1766 97.71 78.5646 97.6238 78.0291 97.3652C77.5702 97.1067 77.1877 96.8481 76.8817 96.5034C76.5757 96.1586 76.4227 95.8138 76.3462 95.4691C76.2697 95.1243 76.1932 94.8658 76.1932 94.6934C76.1932 94.521 76.1932 94.4348 76.2697 94.3486C76.3462 94.2624 76.4227 94.1763 76.5757 94.1763H76.8052C76.8817 94.1763 76.9582 94.1763 77.0347 94.2624C77.2055 94.4549 77.2112 94.7378 77.3125 94.9743C77.3301 95.0155 77.3496 95.0566 77.3715 95.0978C77.4804 95.3023 77.625 95.4883 77.7833 95.6574C77.9397 95.8245 78.1374 95.9915 78.3351 96.1586C78.7176 96.4172 79.1766 96.5034 79.7886 96.5034C80.4771 96.5034 81.0125 96.4172 81.4715 96.2448C81.9305 96.0724 82.2365 95.7277 82.466 95.2105C82.6955 94.6934 82.8485 94.0901 82.8485 93.2282C82.8485 92.7997 82.2452 92.5919 81.8848 92.8236C81.816 92.8678 81.7445 92.9091 81.6699 92.9471C81.6399 92.9624 81.6111 92.98 81.5836 92.9993C81.1252 93.3194 80.4569 93.4006 79.7886 93.4006C79.1001 93.4006 78.4881 93.2282 78.0291 92.9696C77.5702 92.7111 77.1112 92.2801 76.8052 91.8492C76.4992 91.332 76.2697 90.8149 76.1167 90.2116C75.9637 89.6083 75.8872 89.0049 75.8872 88.4016C75.8872 88.0569 75.8872 87.6259 75.8872 87.2812C75.8872 86.6778 75.9637 86.0745 76.1167 85.4712C76.2697 84.8679 76.4992 84.3508 76.8052 83.8336C77.1112 83.3165 77.4937 82.9717 78.0291 82.7132C78.4881 82.4546 79.1001 82.2822 79.7886 82.2822C80.5536 82.2822 81.1655 82.4546 81.6245 82.7132C81.8173 82.8579 82.01 83.0027 82.1914 83.1539C82.4177 83.3424 82.8485 83.1801 82.8485 82.8855C82.8485 82.7132 82.8485 82.627 82.925 82.5408C83.0015 82.4546 83.078 82.3684 83.231 82.3684H83.537C83.69 82.3684 83.7665 82.4546 83.8429 82.5408C83.9194 82.627 83.9959 82.7132 83.9959 82.8855V92.8834C83.9959 93.7453 83.8429 94.521 83.6135 95.2967C83.5074 95.6155 83.3686 95.9158 83.1895 96.1893C82.7662 96.8356 82.1216 97.3592 81.3747 97.557C80.9616 97.6663 80.4807 97.71 79.9416 97.71ZM79.9416 92.1939C80.6301 92.1939 81.1655 92.0215 81.6245 91.6768C82.0835 91.332 82.3895 90.8149 82.5425 90.2978C82.772 89.7806 82.8485 89.1773 82.8485 88.6602C82.8485 88.4878 82.8485 88.2292 82.8485 87.8845C82.8485 87.6259 82.8485 87.3674 82.8485 87.1088C82.8485 86.5917 82.6955 85.9883 82.5425 85.4712C82.313 84.9541 82.007 84.4369 81.6245 84.0922C81.1655 83.7474 80.6301 83.5751 79.9416 83.5751C79.2531 83.5751 78.6411 83.7474 78.2586 84.0922C78.1634 84.178 78.0729 84.2745 77.9872 84.379C77.45 85.034 77.1872 85.8757 77.0749 86.7153C77.0496 86.9039 77.0347 87.0925 77.0347 87.2812C77.0347 87.6259 77.0347 88.0569 77.0347 88.4016C77.0347 89.0911 77.1877 89.6944 77.3407 90.2116C77.3558 90.2714 77.3725 90.3295 77.3906 90.3859C77.6981 91.3419 78.6095 92.0904 79.6097 92.1796C79.7179 92.1893 79.8287 92.1939 79.9416 92.1939Z" fill="white"/>
<path d="M90.4217 93.4008C89.2743 93.4008 88.2798 92.9699 87.5913 92.108C86.9028 91.2461 86.5203 90.1256 86.4438 88.6604C86.4438 88.4881 86.4438 88.1433 86.4438 87.7986C86.4438 87.4538 86.4438 87.1952 86.4438 86.9367C86.5203 85.9886 86.6733 85.2129 87.0558 84.4372C87.3618 83.7477 87.8208 83.1444 88.4328 82.7996C89.0448 82.3687 89.6567 82.1963 90.4982 82.1963C91.3397 82.1963 92.1047 82.3687 92.6401 82.7996C93.2521 83.2306 93.7111 83.8339 94.0171 84.6096C94.3231 85.3853 94.4761 86.3333 94.4761 87.4538V87.7986C94.4761 87.9709 94.3996 88.0571 94.3231 88.1433C94.2466 88.2295 94.1701 88.2295 94.0171 88.2295H87.6872C87.592 88.2295 87.5148 88.4019 87.5148 88.4019C87.5148 89.0052 87.6678 89.6085 87.8973 90.1256C88.1268 90.6428 88.4328 91.1599 88.8918 91.5047C89.3508 91.8494 89.8097 92.0218 90.4217 92.0218C90.9572 92.0218 91.3397 91.9356 91.7222 91.7632C91.854 91.7038 91.9677 91.6444 92.0694 91.5814C92.4382 91.3533 92.7703 91.0391 92.9461 90.6428C92.9599 90.6117 92.9762 90.5834 92.9937 90.5574C93.0924 90.4102 93.3044 90.2118 93.4816 90.2118H93.7876C93.8641 90.2118 94.0171 90.2118 94.0936 90.298C94.1701 90.3842 94.1701 90.4704 94.1701 90.5566C94.1701 90.5898 94.1672 90.6263 94.161 90.6653C94.0916 91.0993 93.7446 91.4342 93.438 91.7492C93.3861 91.8025 93.3324 91.8575 93.2776 91.9149C93.1567 92.0415 93.0503 92.153 92.911 92.2589C92.3485 92.6864 91.7457 93.2142 91.0524 93.3506C90.8546 93.3895 90.6432 93.4008 90.4217 93.4008ZM87.9738 85.3853C87.423 86.3162 88.4682 87.2814 89.5498 87.2814H93.3189C93.3665 87.2814 93.4051 87.2428 93.4051 87.1952C93.4051 86.5057 93.2521 85.9024 93.0226 85.3853C92.7931 84.8681 92.4871 84.4372 92.0282 84.0924C91.5692 83.7477 91.0337 83.5753 90.4982 83.5753C89.8862 83.5753 89.3507 83.7477 88.9683 84.0924C88.5093 84.4372 88.2033 84.8681 87.9738 85.3853Z" fill="white"/>
<path d="M97.3063 93.2284C97.1533 93.2284 97.0768 93.2284 97.0003 93.1422C96.9238 93.056 96.9238 92.9698 96.9238 92.7975V83.0581C96.9238 82.8858 96.9238 82.7996 97.0003 82.7134C97.0768 82.6272 97.1533 82.541 97.3063 82.541H97.6123C97.7653 82.541 97.8418 82.6272 97.9183 82.7134C97.9948 82.7996 98.0713 82.8858 98.0713 83.0581C98.0713 83.2752 98.4416 83.3749 98.602 83.2287C98.7144 83.1262 98.8359 83.0442 98.9663 82.9825C98.9815 82.9754 98.9962 82.9672 99.0103 82.958C99.3913 82.7103 99.9184 82.6272 100.519 82.6272H101.208C101.361 82.6272 101.437 82.6272 101.514 82.7134C101.59 82.7996 101.59 82.8858 101.59 83.0581V83.3167C101.59 83.4891 101.59 83.5753 101.514 83.6615C101.437 83.7477 101.361 83.7477 101.208 83.7477H100.443C99.6777 83.7477 99.1423 84.0062 98.6833 84.4372C98.2243 84.9543 98.0713 85.5576 98.0713 86.4195V92.7975C98.0713 92.9698 97.9948 93.056 97.9183 93.1422C97.8418 93.2284 97.7653 93.2284 97.6123 93.2284H97.3063Z" fill="white"/>
</svg>
