<svg xmlns="http://www.w3.org/2000/svg" viewBox="0 0 202.07 149.15"><title>logo-white</title><g id="Layer_1" data-name="Layer 1"><path d="M56.85,55.68c-1.48,4.48-3.23,12.38-4.7,16.84C51,76,49.93,79.4,48.74,82.81c-.35,1-.14,1.21.86,1.18,2.33-.06,4.67-.08,7,0a1.86,1.86,0,0,0,1.89-1.11c4.53-7.6,9.4-18.61,13.92-26.21a2,2,0,0,1,2-1.16c4.77.05,9.53,0,14.3,0a5.81,5.81,0,0,0,5.73-3.72A6,6,0,0,0,93,45.15a5.31,5.31,0,0,0-3.88-1.52c-4.67,0-9.34-.06-14,0a2.66,2.66,0,0,1-2.67-1.54C67,33.24,61.61,24.4,56.24,15.52a1.85,1.85,0,0,0-1.9-1.09c-2,.09-3.91.08-5.86,0-1,0-1.18.2-.85,1.18,2.94,8.84,5.83,17.7,8.74,26.55.15.44.28.89.45,1.46-3.86,0-7.62,0-11.37,0-4.57-.07-9.13.11-13.71-.29A29,29,0,0,1,6.24,20.61a29.39,29.39,0,0,1,1.06-16A1.53,1.53,0,0,1,9,3.32c19.83,0,39.66,0,59.49,0,9.73,0,19.31,1.15,28.41,4.81,11.21,4.5,20.13,11.68,25.58,22.68a42.16,42.16,0,0,1,4.06,20.37,46.89,46.89,0,0,1-2.79,15.38A37.2,37.2,0,0,1,100.49,89.4a81.79,81.79,0,0,1-23.23,4.27c-10.67.58-21.35.17-32,.23-1.28,0-1.54.34-1.54,1.57.06,12.68,0,25.36.1,38,0,1.18-.28,1.46-1.47,1.5-12.1.37-24.21,0-36.31.19-1.15,0-1.51-.21-1.5-1.45.05-12.54,0-25.08,0-37.61,0-6.35,0-12.69,0-19a6.5,6.5,0,0,1,.43-2.51c4.42-10.93,12.48-17.2,24.12-18.91l.29,0,27-.1A2.67,2.67,0,0,1,56.85,55.68Z" style="fill:#fff"/><path d="M49.13,134.62A1.05,1.05,0,0,1,48,133.5V100.11a1.17,1.17,0,0,1,.31-.87,1.1,1.1,0,0,1,.82-.31H68.8A1.06,1.06,0,0,1,70,100.11v.76a1.1,1.1,0,0,1-.31.82,1.17,1.17,0,0,1-.87.31H51.22V115.7H67.79A1.06,1.06,0,0,1,69,116.88v.76a1.1,1.1,0,0,1-.31.82,1.17,1.17,0,0,1-.87.31H51.22V133.5a1.1,1.1,0,0,1-.31.82,1.17,1.17,0,0,1-.87.31Z" style="fill:#fff"/><path d="M77.57,134.62a1.05,1.05,0,0,1-1.12-1.12v-34a1.05,1.05,0,0,1,1.12-1.12h.87a1.05,1.05,0,0,1,1.12,1.12v34a1.05,1.05,0,0,1-1.12,1.12Z" style="fill:#fff"/><path d="M88.43,102.65a1.05,1.05,0,0,1-1.12-1.12V99.6a1.19,1.19,0,0,1,.31-.84,1.06,1.06,0,0,1,.82-.33h1.94a1.13,1.13,0,0,1,1.17,1.17v1.94a1.06,1.06,0,0,1-.33.82,1.19,1.19,0,0,1-.84.31Zm.56,32a1.05,1.05,0,0,1-1.12-1.12V109.23A1.05,1.05,0,0,1,89,108.11h.87A1.05,1.05,0,0,1,91,109.23V133.5a1.05,1.05,0,0,1-1.12,1.12Z" style="fill:#fff"/><path d="M109.07,135.13a10,10,0,0,1-7.85-3.24,13.91,13.91,0,0,1-3.31-8.49q-.05-.76-.05-2t.05-2a15.63,15.63,0,0,1,1.63-6.12,10.27,10.27,0,0,1,3.8-4.13,10.79,10.79,0,0,1,5.73-1.48,11.12,11.12,0,0,1,6.07,1.58,10.25,10.25,0,0,1,3.85,4.54,16.82,16.82,0,0,1,1.35,7v.76a1.06,1.06,0,0,1-.33.82,1.19,1.19,0,0,1-.84.31H101v.51a11.34,11.34,0,0,0,1.07,4.36,8.6,8.6,0,0,0,2.75,3.36,7,7,0,0,0,4.23,1.3,8.79,8.79,0,0,0,3.64-.66,8.94,8.94,0,0,0,2.32-1.45,7,7,0,0,0,1.12-1.2,2.58,2.58,0,0,1,.71-.79,1.94,1.94,0,0,1,.82-.13h.82a1.19,1.19,0,0,1,.79.28.8.8,0,0,1,.28.74,3.76,3.76,0,0,1-.79,1.76,9.63,9.63,0,0,1-2.09,2.06,11.7,11.7,0,0,1-3.29,1.68A13.36,13.36,0,0,1,109.07,135.13ZM101,119.78h16.21v-.2a10.57,10.57,0,0,0-1-4.59,7.77,7.77,0,0,0-2.8-3.24,7.85,7.85,0,0,0-4.38-1.2A7.44,7.44,0,0,0,102,115a10.8,10.8,0,0,0-.94,4.59Z" style="fill:#fff"/><path d="M137,145.83a13.9,13.9,0,0,1-5.33-.87,9,9,0,0,1-3.21-2.12,7.84,7.84,0,0,1-2.12-4.51,1,1,0,0,1,.31-.84,1.16,1.16,0,0,1,.82-.33h.71a1.38,1.38,0,0,1,.71.18,1.48,1.48,0,0,1,.51.89,11,11,0,0,0,1,1.91,5.72,5.72,0,0,0,2.19,1.91,8.8,8.8,0,0,0,4.15.82,13.36,13.36,0,0,0,4.69-.71,5.37,5.37,0,0,0,2.88-2.52,10.52,10.52,0,0,0,1-5V131.1a10.24,10.24,0,0,1-3.34,2.88,10.66,10.66,0,0,1-5.23,1.15,10.8,10.8,0,0,1-5-1.07,9.26,9.26,0,0,1-3.34-2.85,12.59,12.59,0,0,1-1.89-4,17.91,17.91,0,0,1-.66-4.43q-.05-1.43,0-2.85a17.93,17.93,0,0,1,.66-4.44,12.62,12.62,0,0,1,1.89-4,9.27,9.27,0,0,1,3.34-2.85,10.8,10.8,0,0,1,5-1.07,10.48,10.48,0,0,1,5.23,1.17,10.82,10.82,0,0,1,3.34,2.85v-2.35a1.19,1.19,0,0,1,.31-.84,1.06,1.06,0,0,1,.82-.33h.82a1.13,1.13,0,0,1,1.17,1.17v24.83a17.15,17.15,0,0,1-1,5.91,8.31,8.31,0,0,1-3.44,4.23A13,13,0,0,1,137,145.83Zm.05-13.66a7.47,7.47,0,0,0,4.69-1.38,8.17,8.17,0,0,0,2.63-3.44,12.58,12.58,0,0,0,.94-4.15q.05-.76.05-1.83t-.05-1.84a12.58,12.58,0,0,0-.94-4.15,8.17,8.17,0,0,0-2.63-3.44,7.47,7.47,0,0,0-4.69-1.38,7.65,7.65,0,0,0-4.72,1.32,7.32,7.32,0,0,0-2.52,3.47,15.46,15.46,0,0,0-.87,4.59q-.05,1.43,0,2.85a15.46,15.46,0,0,0,.87,4.59,7.32,7.32,0,0,0,2.52,3.47A7.65,7.65,0,0,0,137,132.17Z" style="fill:#fff"/><path d="M166.52,135.13a10,10,0,0,1-7.85-3.24,13.91,13.91,0,0,1-3.31-8.49q-.05-.76-.05-2t.05-2a15.63,15.63,0,0,1,1.63-6.12,10.27,10.27,0,0,1,3.8-4.13,10.79,10.79,0,0,1,5.73-1.48,11.13,11.13,0,0,1,6.07,1.58,10.25,10.25,0,0,1,3.85,4.54,16.83,16.83,0,0,1,1.35,7v.76a1.06,1.06,0,0,1-.33.82,1.2,1.2,0,0,1-.84.31H158.47v.51a11.34,11.34,0,0,0,1.07,4.36,8.6,8.6,0,0,0,2.75,3.36,7,7,0,0,0,4.23,1.3,8.79,8.79,0,0,0,3.64-.66,8.92,8.92,0,0,0,2.32-1.45,7,7,0,0,0,1.12-1.2,2.57,2.57,0,0,1,.71-.79,1.94,1.94,0,0,1,.82-.13H176a1.19,1.19,0,0,1,.79.28.8.8,0,0,1,.28.74,3.76,3.76,0,0,1-.79,1.76,9.65,9.65,0,0,1-2.09,2.06,11.69,11.69,0,0,1-3.29,1.68A13.36,13.36,0,0,1,166.52,135.13Zm-8.05-15.34h16.21v-.2a10.57,10.57,0,0,0-1-4.59,7.76,7.76,0,0,0-2.8-3.24,7.85,7.85,0,0,0-4.38-1.2,7.44,7.44,0,0,0-7.11,4.43,10.8,10.8,0,0,0-.94,4.59Z" style="fill:#fff"/><path d="M185.64,134.62a1.05,1.05,0,0,1-1.12-1.12V109.28a1.19,1.19,0,0,1,.31-.84,1.06,1.06,0,0,1,.82-.33h.82a1.13,1.13,0,0,1,1.17,1.17v2.35a5.89,5.89,0,0,1,2.65-2.65,9.52,9.52,0,0,1,4.28-.87h1.89a1.05,1.05,0,0,1,1.12,1.12v.71a1.05,1.05,0,0,1-1.12,1.12h-2.19a6.16,6.16,0,0,0-6.63,6.63v15.8a1.06,1.06,0,0,1-.33.82,1.19,1.19,0,0,1-.84.31Z" style="fill:#fff"/></g></svg>