<svg width="156" height="20" viewBox="0 0 156 20" fill="none" xmlns="http://www.w3.org/2000/svg">
<path d="M13.0839 6.99223L11.2183 0.897247C10.8503 -0.299082 9.1497 -0.299082 8.79436 0.897247L6.91609 6.99223H1.26859C0.037562 6.99223 -0.470078 8.56635 0.532511 9.27155L5.15204 12.5457L3.33722 18.3511C2.96918 19.5222 4.33981 20.4667 5.31702 19.7237L10 16.1977L14.683 19.7363C15.6602 20.4793 17.0308 19.5348 16.6628 18.3637L14.848 12.5583L19.4675 9.28414C20.4701 8.56635 19.9624 7.00482 18.7314 7.00482H13.0839V6.99223Z" fill="#CC8100"/>
<path d="M46.0839 6.99223L44.2183 0.897247C43.8503 -0.299082 42.1497 -0.299082 41.7944 0.897247L39.9161 6.99223H34.2686C33.0376 6.99223 32.5299 8.56635 33.5325 9.27155L38.152 12.5457L36.3372 18.3511C35.9692 19.5222 37.3398 20.4667 38.317 19.7237L43 16.1977L47.683 19.7363C48.6602 20.4793 50.0308 19.5348 49.6628 18.3637L47.848 12.5583L52.4675 9.28414C53.4701 8.56635 52.9624 7.00482 51.7314 7.00482H46.0839V6.99223Z" fill="#CC8100"/>
<path d="M79.0839 6.99223L77.2183 0.897247C76.8503 -0.299082 75.1497 -0.299082 74.7944 0.897247L72.9161 6.99223H67.2686C66.0376 6.99223 65.5299 8.56635 66.5325 9.27155L71.152 12.5457L69.3372 18.3511C68.9692 19.5222 70.3398 20.4667 71.317 19.7237L76 16.1977L80.683 19.7363C81.6602 20.4793 83.0308 19.5348 82.6628 18.3637L80.848 12.5583L85.4675 9.28414C86.4701 8.56635 85.9624 7.00482 84.7314 7.00482H79.0839V6.99223Z" fill="#CC8100"/>
<path d="M113.084 6.99223L111.218 0.897247C110.85 -0.299082 109.15 -0.299082 108.794 0.897247L106.916 6.99223H101.269C100.038 6.99223 99.5299 8.56635 100.533 9.27155L105.152 12.5457L103.337 18.3511C102.969 19.5222 104.34 20.4667 105.317 19.7237L110 16.1977L114.683 19.7363C115.66 20.4793 117.031 19.5348 116.663 18.3637L114.848 12.5583L119.467 9.28414C120.47 8.56635 119.962 7.00482 118.731 7.00482H113.084V6.99223Z" fill="#CC8100"/>
<path d="M149.084 6.99223L147.218 0.897247C146.85 -0.299082 145.15 -0.299082 144.794 0.897247L142.916 6.99223H137.269C136.038 6.99223 135.53 8.56635 136.533 9.27155L141.152 12.5457L139.337 18.3511C138.969 19.5222 140.34 20.4667 141.317 19.7237L146 16.1977L150.683 19.7363C151.66 20.4793 153.031 19.5348 152.663 18.3637L150.848 12.5583L155.467 9.28414C156.47 8.56635 155.962 7.00482 154.731 7.00482H149.084V6.99223Z" fill="#CC8100"/>
</svg>
