<svg width="236" height="303" viewBox="0 0 236 303" fill="none" xmlns="http://www.w3.org/2000/svg">
<path d="M101.125 116.031C98.3263 125.919 94.8919 143.368 92.0934 153.256C89.931 160.818 87.7686 168.525 85.479 175.941C84.843 178.122 85.2246 178.558 87.1326 178.558C91.5846 178.413 96.1639 178.413 100.743 178.558C102.651 178.704 103.542 177.831 104.432 176.086C113.209 159.218 122.622 134.935 131.399 118.067C132.416 116.176 133.434 115.449 135.342 115.449C144.5 115.595 153.786 115.595 162.944 115.449C168.287 115.449 172.23 112.396 174.011 107.161C175.792 101.926 174.774 96.5459 171.085 92.4743C169.05 90.1477 166.506 89.1298 163.58 89.1298C154.549 89.1298 145.518 88.9844 136.487 89.2753C133.943 89.2753 132.671 88.2574 131.271 85.9308C120.968 66.3002 110.41 46.6696 99.9799 27.039C99.0895 25.294 98.1991 24.567 96.2911 24.567C92.475 24.7124 88.7862 24.7124 84.9702 24.567C82.935 24.4216 82.6806 25.0032 83.3166 27.1844C89.0406 46.6696 94.6375 66.3002 100.234 85.9308C100.489 86.9487 100.743 87.9666 101.125 89.1298C93.6198 89.1298 86.3694 89.2753 79.1189 89.1298C70.3421 88.9844 61.438 89.4207 52.6612 88.5482C28.7474 86.367 7.88645 65.2823 3.18002 38.5265C1.14481 26.4573 1.65361 14.679 5.34244 3.04603C5.85124 1.15567 6.61445 0.283203 8.52246 0.283203C46.9371 0.428615 85.2246 0.283203 123.639 0.428615C142.465 0.428615 161.036 3.04603 178.59 11.0437C200.214 20.9317 217.513 36.927 228.071 61.2108C234.177 75.3157 236.339 90.584 235.958 106.288C235.703 117.921 234.177 129.409 230.615 140.315C222.347 165.035 207.465 181.757 185.586 190.773C171.085 196.735 155.948 199.207 140.684 200.225C120.078 201.533 99.3439 200.661 78.7373 200.661C76.1933 200.661 75.8117 201.388 75.8117 204.151C75.9389 232.215 75.9389 260.28 75.9389 288.199C75.9389 290.816 75.4301 291.398 73.1405 291.543C49.7355 292.416 26.3306 291.689 2.92562 291.979C0.763205 291.979 0 291.543 0 288.78C0.127201 261.007 0 233.378 0 205.605C0 191.5 0 177.54 0 163.435C0 161.545 0.254402 159.655 0.763205 157.91C9.28566 133.771 24.9314 119.812 47.4459 116.031C47.5731 116.031 47.8275 116.031 47.9547 116.031C65.3812 115.886 82.6806 115.886 100.107 115.74C100.361 115.74 100.616 115.886 101.125 116.031Z" fill="white"/>
<path d="M84.97 245.448C84.7156 245.448 84.4612 245.303 84.334 245.157C84.2068 245.012 84.0796 244.721 84.0796 244.43V213.167C84.0796 212.876 84.2068 212.585 84.334 212.294C84.4612 212.149 84.7156 212.003 84.97 212.003H95.1461C97.0541 212.003 98.8349 212.44 100.234 213.167C101.633 213.894 102.778 215.057 103.541 216.511C104.305 217.965 104.686 219.71 104.686 221.891C104.686 224.073 104.305 225.818 103.541 227.272C102.778 228.726 101.633 229.889 100.234 230.616C98.8349 231.343 97.0541 231.779 95.1461 231.779H86.7508V244.285C86.7508 244.576 86.6236 244.866 86.4964 245.012C86.3692 245.157 86.1148 245.303 85.7332 245.303H84.97V245.448ZM86.6236 229.017H94.8917C97.3085 229.017 99.0893 228.435 100.234 227.272C101.379 226.108 102.015 224.363 102.015 222.037C102.015 219.71 101.379 218.111 100.234 216.802C99.0893 215.639 97.3085 215.057 94.8917 215.057H86.6236V229.017Z" fill="white"/>
<path d="M115.117 245.883C113.845 245.883 112.573 245.593 111.428 244.866C110.283 244.284 109.393 243.411 108.757 242.248C108.121 241.23 107.739 239.922 107.739 238.613C107.739 236.432 108.502 234.687 110.029 233.378C111.555 232.069 113.59 231.197 116.007 230.906L122.622 229.888V228.289C122.622 226.544 122.113 225.235 121.223 224.363C120.332 223.345 118.933 222.908 116.898 222.908C115.499 222.908 114.226 223.199 113.336 223.926C112.446 224.508 111.81 225.38 111.555 226.544C111.428 226.98 111.174 227.271 110.792 227.271H110.156C109.774 227.271 109.647 227.125 109.393 226.98C109.266 226.835 109.138 226.544 109.138 226.253C109.138 225.817 109.266 225.235 109.52 224.653C109.774 223.926 110.283 223.345 110.919 222.618C111.555 222.036 112.318 221.454 113.336 221.018C114.354 220.582 115.499 220.291 116.898 220.291C118.551 220.291 119.951 220.582 120.968 221.018C121.986 221.454 122.876 222.181 123.512 223.054C124.148 223.926 124.53 224.799 124.784 225.817C125.039 226.835 125.166 227.707 125.166 228.725V244.575C125.166 244.866 125.039 245.156 124.911 245.302C124.784 245.447 124.53 245.593 124.275 245.593H123.512C123.258 245.593 123.003 245.447 122.876 245.302C122.749 245.156 122.622 244.866 122.622 244.575V242.394C122.24 242.975 121.859 243.557 121.223 244.139C120.587 244.72 119.823 245.156 118.806 245.593C117.788 245.738 116.516 245.883 115.117 245.883ZM115.499 243.121C116.771 243.121 117.915 242.83 119.06 242.103C120.078 241.521 120.968 240.503 121.604 239.195C122.24 237.886 122.495 236.286 122.495 234.251V232.651L117.152 233.523C114.862 233.814 113.209 234.541 111.937 235.268C110.792 236.141 110.156 237.159 110.156 238.467C110.156 239.485 110.41 240.358 110.919 241.085C111.428 241.812 112.064 242.248 112.954 242.539C113.845 242.975 114.608 243.121 115.499 243.121Z" fill="white"/>
<path d="M132.543 254.463C132.289 254.463 132.035 254.318 131.907 254.173C131.78 254.027 131.653 253.736 131.653 253.446V221.746C131.653 221.455 131.78 221.164 131.907 221.019C132.035 220.873 132.289 220.728 132.543 220.728H133.307C133.561 220.728 133.815 220.873 133.943 221.019C134.07 221.164 134.197 221.455 134.197 221.746V223.927C134.833 222.909 135.851 221.891 136.868 221.164C138.013 220.437 139.412 220.146 141.193 220.146C142.847 220.146 144.246 220.437 145.263 221.164C146.408 221.746 147.299 222.618 147.935 223.782C148.571 224.799 149.079 226.108 149.461 227.417C149.843 228.726 149.97 230.18 149.97 231.488C149.97 231.925 149.97 232.506 149.97 233.088C149.97 233.67 149.97 234.251 149.97 234.687C149.97 236.142 149.715 237.45 149.461 238.759C149.207 240.068 148.571 241.231 147.935 242.394C147.299 243.412 146.281 244.285 145.263 245.012C144.119 245.593 142.719 246.03 141.193 246.03C139.412 246.03 138.013 245.593 136.868 244.866C135.723 244.139 134.833 243.267 134.197 242.249V253.591C134.197 253.882 134.07 254.173 133.943 254.318C133.815 254.463 133.561 254.609 133.307 254.609H132.543V254.463ZM140.939 243.121C142.592 243.121 143.864 242.685 144.755 241.813C145.645 240.94 146.408 239.922 146.79 238.614C147.171 237.305 147.426 235.851 147.553 234.397C147.553 233.524 147.553 232.652 147.553 231.779C147.553 230.325 147.299 228.871 146.79 227.562C146.281 226.254 145.645 225.09 144.755 224.363C143.864 223.491 142.465 223.054 140.939 223.054C139.412 223.054 138.14 223.491 137.123 224.363C136.105 225.236 135.469 226.254 134.96 227.562C134.451 228.871 134.197 230.18 134.197 231.488C134.197 231.925 134.197 232.652 134.197 233.379C134.197 234.106 134.197 234.687 134.197 235.269C134.197 236.578 134.451 237.741 134.96 239.05C135.469 240.358 136.232 241.376 137.123 242.103C138.14 242.83 139.412 243.121 140.939 243.121Z" fill="white"/>
<path d="M175.41 245.884C172.739 245.884 170.576 244.866 169.05 242.83C167.523 240.795 166.506 238.177 166.379 234.833C166.379 234.397 166.379 233.67 166.379 232.942C166.379 232.215 166.379 231.488 166.379 231.052C166.506 228.871 167.015 226.981 167.651 225.381C168.414 223.782 169.431 222.473 170.703 221.455C171.975 220.582 173.629 220.146 175.41 220.146C177.318 220.146 178.971 220.582 180.371 221.6C181.77 222.618 182.787 223.927 183.551 225.817C184.314 227.708 184.695 229.889 184.695 232.361V233.088C184.695 233.379 184.568 233.67 184.441 233.815C184.314 233.96 184.059 234.106 183.805 234.106H168.923C168.923 234.397 168.923 234.542 168.923 234.542C168.923 235.996 169.304 237.305 169.813 238.614C170.322 239.922 171.085 240.94 172.103 241.813C173.12 242.685 174.265 242.976 175.537 242.976C176.682 242.976 177.699 242.83 178.463 242.394C179.226 241.958 179.862 241.522 180.371 241.086C180.879 240.649 181.134 240.213 181.261 239.922C181.515 239.486 181.643 239.195 181.897 239.195C182.024 239.05 182.279 239.05 182.533 239.05H183.169C183.423 239.05 183.678 239.195 183.805 239.341C183.932 239.486 184.059 239.777 184.059 240.068C184.059 240.504 183.805 241.086 183.423 241.667C183.042 242.249 182.406 242.976 181.77 243.558C181.007 244.139 180.116 244.721 179.099 245.157C177.954 245.739 176.809 245.884 175.41 245.884ZM168.923 231.634H182.151V231.488C182.151 229.889 181.897 228.435 181.388 227.271C180.879 225.963 180.116 224.945 179.099 224.218C178.081 223.491 176.936 223.054 175.537 223.054C174.138 223.054 172.993 223.491 171.975 224.218C170.958 224.945 170.195 225.963 169.686 227.271C169.177 228.58 168.923 230.034 168.923 231.488V231.634Z" fill="white"/>
<path d="M191.056 245.448C190.801 245.448 190.547 245.302 190.42 245.157C190.292 245.011 190.165 244.721 190.165 244.43V221.746C190.165 221.455 190.292 221.164 190.42 221.019C190.547 220.873 190.801 220.728 191.056 220.728H191.692C191.946 220.728 192.2 220.873 192.328 221.019C192.455 221.164 192.582 221.455 192.582 221.746V223.927C193.091 222.763 193.854 222.036 194.744 221.455C195.635 220.873 196.907 220.582 198.306 220.582H199.832C200.087 220.582 200.341 220.728 200.468 220.873C200.596 221.019 200.723 221.309 200.723 221.6V222.327C200.723 222.618 200.596 222.909 200.468 223.054C200.341 223.2 200.087 223.345 199.832 223.345H198.052C196.398 223.345 195.126 223.927 194.108 224.945C193.091 226.108 192.709 227.562 192.709 229.452V244.284C192.709 244.575 192.582 244.866 192.455 245.011C192.328 245.157 192.073 245.302 191.819 245.302H191.056V245.448Z" fill="white"/>
<path d="M84.97 291.688C84.7156 291.688 84.4612 291.542 84.334 291.397C84.2068 291.251 84.0796 290.961 84.0796 290.67V259.406C84.0796 259.115 84.2068 258.825 84.334 258.534C84.4612 258.388 84.7156 258.243 84.97 258.243H100.997C101.252 258.243 101.506 258.388 101.761 258.534C101.888 258.679 102.015 258.97 102.015 259.406V260.133C102.015 260.424 101.888 260.715 101.761 260.86C101.633 261.006 101.379 261.151 100.997 261.151H86.6236V273.947H100.107C100.361 273.947 100.616 274.093 100.87 274.238C100.997 274.384 101.125 274.674 101.125 275.111V275.838C101.125 276.129 100.997 276.419 100.87 276.565C100.743 276.71 100.489 276.856 100.107 276.856H86.6236V290.67C86.6236 290.961 86.4964 291.251 86.3692 291.397C86.242 291.542 85.9876 291.688 85.606 291.688H84.97Z" fill="white"/>
<path d="M108.247 291.688C107.993 291.688 107.739 291.543 107.612 291.398C107.485 291.252 107.358 290.961 107.358 290.671V258.971C107.358 258.68 107.485 258.389 107.612 258.244C107.739 258.098 107.993 257.953 108.247 257.953H109.01C109.264 257.953 109.518 258.098 109.645 258.244C109.772 258.389 109.899 258.68 109.899 258.971V290.671C109.899 290.961 109.772 291.252 109.645 291.398C109.518 291.543 109.264 291.688 109.01 291.688H108.247Z" fill="white"/>
<path d="M117.025 261.734C116.77 261.734 116.516 261.588 116.389 261.443C116.262 261.297 116.134 261.007 116.134 260.716V258.971C116.134 258.68 116.262 258.389 116.389 258.244C116.516 258.098 116.77 257.953 117.025 257.953H118.551C118.806 257.953 119.06 258.098 119.187 258.244C119.314 258.389 119.442 258.68 119.442 258.971V260.716C119.442 261.007 119.314 261.297 119.187 261.443C119.06 261.588 118.806 261.734 118.551 261.734H117.025ZM117.534 291.688C117.279 291.688 117.025 291.543 116.898 291.398C116.77 291.252 116.643 290.961 116.643 290.671V267.986C116.643 267.695 116.77 267.405 116.898 267.259C117.025 267.114 117.279 266.968 117.534 266.968H118.17C118.424 266.968 118.678 267.114 118.806 267.259C118.933 267.405 119.06 267.695 119.06 267.986V290.671C119.06 290.961 118.933 291.252 118.806 291.398C118.678 291.543 118.424 291.688 118.17 291.688H117.534Z" fill="white"/>
<path d="M133.942 292.125C131.271 292.125 129.109 291.107 127.582 289.071C126.056 287.035 125.038 284.418 124.911 281.073C124.911 280.637 124.911 279.91 124.911 279.183C124.911 278.456 124.911 277.729 124.911 277.293C125.038 275.111 125.547 273.221 126.183 271.622C126.946 270.022 127.964 268.713 129.236 267.695C130.508 266.823 132.162 266.387 133.942 266.387C135.85 266.387 137.504 266.823 138.903 267.841C140.303 268.859 141.32 270.167 142.083 272.058C142.847 273.948 143.228 276.129 143.228 278.601V279.328C143.228 279.619 143.101 279.91 142.974 280.055C142.847 280.201 142.592 280.346 142.338 280.346H127.455C127.455 280.637 127.455 280.782 127.455 280.782C127.455 282.237 127.837 283.545 128.346 284.854C128.854 286.163 129.618 287.181 130.635 288.053C131.653 288.926 132.798 289.216 134.07 289.216C135.214 289.216 136.232 289.071 136.995 288.635C137.758 288.199 138.394 287.762 138.903 287.326C139.412 286.89 139.666 286.454 139.794 286.163C140.048 285.727 140.175 285.436 140.43 285.436C140.557 285.29 140.811 285.29 141.066 285.29H141.702C141.956 285.29 142.211 285.436 142.338 285.581C142.465 285.726 142.592 286.017 142.592 286.308C142.592 286.744 142.338 287.326 141.956 287.908C141.575 288.489 140.939 289.216 140.303 289.798C139.539 290.38 138.649 290.961 137.631 291.398C136.359 291.979 135.214 292.125 133.942 292.125ZM127.328 277.729H140.557V277.583C140.557 275.984 140.302 274.53 139.794 273.366C139.285 272.058 138.522 271.04 137.504 270.313C136.486 269.586 135.342 269.15 133.942 269.15C132.543 269.15 131.398 269.586 130.381 270.313C129.363 271.04 128.6 272.058 128.091 273.366C127.582 274.675 127.328 276.129 127.328 277.583V277.729Z" fill="white"/>
<path d="M156.711 302.158C154.931 302.158 153.531 301.867 152.387 301.286C151.242 300.704 150.351 300.122 149.715 299.25C149.079 298.523 148.698 297.65 148.443 296.923C148.189 296.196 148.062 295.469 148.062 295.033C148.062 294.742 148.062 294.451 148.316 294.306C148.571 294.16 148.698 294.015 148.952 294.015H149.588C149.843 294.015 149.97 294.015 150.224 294.16C150.351 294.306 150.479 294.597 150.606 295.033C150.733 295.469 150.987 296.196 151.369 296.778C151.751 297.505 152.387 298.087 153.15 298.523C153.913 298.959 155.058 299.25 156.584 299.25C158.111 299.25 159.383 298.959 160.4 298.523C161.418 298.087 162.181 297.359 162.817 296.196C163.326 295.033 163.58 293.433 163.58 291.543V288.198C162.944 289.216 161.927 290.234 160.909 290.961C159.764 291.688 158.365 291.979 156.584 291.979C154.931 291.979 153.659 291.688 152.514 290.961C151.369 290.234 150.479 289.362 149.843 288.344C149.207 287.181 148.698 286.017 148.316 284.563C147.935 283.254 147.807 281.8 147.807 280.492C147.807 279.619 147.807 278.747 147.807 277.874C147.807 276.42 148.062 275.111 148.316 273.803C148.698 272.494 149.207 271.185 149.843 270.022C150.479 268.859 151.496 267.986 152.514 267.405C153.659 266.678 155.058 266.387 156.584 266.387C158.365 266.387 159.764 266.823 160.909 267.55C162.054 268.277 162.944 269.15 163.58 270.167V267.986C163.58 267.695 163.707 267.405 163.835 267.259C163.962 267.114 164.216 266.968 164.471 266.968H165.107C165.361 266.968 165.615 267.114 165.743 267.259C165.87 267.405 165.997 267.695 165.997 267.986V291.252C165.997 293.288 165.743 295.178 165.234 296.778C164.725 298.377 163.707 299.686 162.435 300.704C161.163 301.576 159.255 302.158 156.711 302.158ZM156.711 289.362C158.238 289.362 159.51 288.926 160.527 288.053C161.545 287.181 162.181 286.163 162.69 284.854C163.199 283.545 163.453 282.237 163.453 280.928C163.453 280.492 163.453 279.91 163.453 279.183C163.453 278.456 163.453 277.874 163.453 277.438C163.453 276.129 163.199 274.821 162.69 273.512C162.181 272.203 161.545 271.185 160.527 270.313C159.51 269.44 158.238 269.004 156.711 269.004C155.058 269.004 153.786 269.44 152.895 270.313C151.878 271.185 151.242 272.203 150.86 273.512C150.479 274.821 150.224 276.275 150.097 277.729C150.097 278.601 150.097 279.474 150.097 280.346C150.097 281.8 150.351 283.254 150.86 284.563C151.369 285.872 152.005 287.035 152.895 287.762C153.913 288.926 155.185 289.362 156.711 289.362Z" fill="white"/>
<path d="M180.88 292.125C178.209 292.125 176.046 291.107 174.52 289.071C172.993 287.035 171.976 284.418 171.848 281.073C171.848 280.637 171.848 279.91 171.848 279.183C171.848 278.456 171.848 277.729 171.848 277.293C171.976 275.111 172.484 273.221 173.12 271.622C173.884 270.022 174.901 268.713 176.173 267.695C177.445 266.823 179.099 266.387 180.88 266.387C182.788 266.387 184.441 266.823 185.841 267.841C187.24 268.859 188.257 270.167 189.021 272.058C189.784 273.948 190.165 276.129 190.165 278.601V279.328C190.165 279.619 190.038 279.91 189.911 280.055C189.784 280.201 189.529 280.346 189.275 280.346H174.392C174.392 280.637 174.392 280.782 174.392 280.782C174.392 282.237 174.774 283.545 175.283 284.854C175.792 286.163 176.555 287.181 177.572 288.053C178.59 288.926 179.735 289.216 181.007 289.216C182.152 289.216 183.169 289.071 183.933 288.635C184.696 288.199 185.332 287.762 185.841 287.326C186.349 286.89 186.604 286.454 186.731 286.163C186.985 285.727 187.113 285.436 187.367 285.436C187.494 285.29 187.749 285.29 188.003 285.29H188.639C188.893 285.29 189.148 285.436 189.275 285.581C189.402 285.726 189.529 286.017 189.529 286.308C189.529 286.744 189.275 287.326 188.893 287.908C188.512 288.489 187.876 289.216 187.24 289.798C186.477 290.38 185.586 290.961 184.569 291.398C183.424 291.979 182.152 292.125 180.88 292.125ZM174.265 277.729H187.494V277.583C187.494 275.984 187.24 274.53 186.731 273.366C186.222 272.058 185.459 271.04 184.441 270.313C183.424 269.586 182.279 269.15 180.88 269.15C179.481 269.15 178.336 269.586 177.318 270.313C176.3 271.04 175.537 272.058 175.028 273.366C174.52 274.675 174.265 276.129 174.265 277.583V277.729Z" fill="white"/>
<path d="M196.526 291.688C196.271 291.688 196.017 291.543 195.89 291.397C195.762 291.252 195.635 290.961 195.635 290.67V267.986C195.635 267.695 195.762 267.404 195.89 267.259C196.017 267.114 196.271 266.968 196.526 266.968H197.162C197.416 266.968 197.67 267.114 197.798 267.259C197.925 267.404 198.052 267.695 198.052 267.986V270.167C198.561 269.004 199.324 268.277 200.214 267.695C201.105 267.114 202.377 266.823 203.776 266.823H205.302C205.557 266.823 205.811 266.968 205.938 267.114C206.066 267.259 206.193 267.55 206.193 267.841V268.568C206.193 268.859 206.066 269.149 205.938 269.295C205.811 269.44 205.557 269.586 205.302 269.586H203.522C201.868 269.586 200.596 270.167 199.578 271.185C198.561 272.348 198.179 273.803 198.179 275.693V290.525C198.179 290.816 198.052 291.107 197.925 291.252C197.798 291.397 197.543 291.543 197.289 291.543H196.526V291.688Z" fill="white"/>
<path d="M157.729 216.074C157.475 216.074 157.22 215.929 157.093 215.783C156.966 215.638 156.839 215.347 156.839 215.056V213.311C156.839 213.021 156.966 212.73 157.093 212.584C157.22 212.439 157.475 212.293 157.729 212.293H159.255C159.51 212.293 159.764 212.439 159.891 212.584C160.019 212.73 160.146 213.021 160.146 213.311V215.056C160.146 215.347 160.019 215.638 159.891 215.783C159.764 215.929 159.51 216.074 159.255 216.074H157.729ZM158.111 245.884C157.856 245.884 157.602 245.738 157.475 245.593C157.347 245.447 157.22 245.157 157.22 244.866V222.181C157.22 221.891 157.347 221.6 157.475 221.454C157.602 221.309 157.856 221.164 158.111 221.164H158.874C159.128 221.164 159.383 221.309 159.51 221.454C159.637 221.6 159.764 221.891 159.764 222.181V244.866C159.764 245.157 159.637 245.447 159.51 245.593C159.383 245.738 159.128 245.884 158.874 245.884H158.111Z" fill="white"/>
</svg>
